<svg width="25" height="25" viewBox="0 0 25 25" fill="none" xmlns="http://www.w3.org/2000/svg">
<path d="M9.88221 16.4062C9.88221 16.8374 9.53273 17.1874 9.10096 17.1874C8.66919 17.1874 8.31971 16.8374 8.31971 16.4062V9.1145C8.31971 8.7744 8.54002 8.47336 8.86398 8.36971C9.1895 8.26659 9.54211 8.38534 9.73846 8.66294L18.4765 21.0088C21.1546 19.1192 22.9166 16.0077 22.9166 12.4999C22.9166 6.77075 18.2291 2.08325 12.4999 2.08325C6.77075 2.08325 2.08325 6.77075 2.08325 12.4999C2.08325 18.2291 6.77075 22.9166 12.4999 22.9166C14.1624 22.9166 15.7322 22.5119 17.1301 21.8114L9.88221 11.5708V16.4062ZM15.0905 8.59367C15.0905 8.16242 15.44 7.81242 15.8718 7.81242C16.3036 7.81242 16.653 8.16242 16.653 8.59367V15.802L15.0905 13.6004V8.59367Z" fill="currentColor"/>
</svg>
