<svg width="25" height="25" viewBox="0 0 25 25" fill="none" xmlns="http://www.w3.org/2000/svg">
<path d="M11.9999 1C8.41594 1 5.49994 5.14616 5.49994 10.2432C5.49994 12.8763 6.28241 15.2473 7.53021 16.9297C7.48319 17.1822 7.49235 17.442 7.55704 17.6907C7.62172 17.9393 7.74035 18.1706 7.90449 18.3682C8.06864 18.5658 8.27428 18.7249 8.5068 18.834C8.73933 18.9432 8.99305 18.9999 9.24994 19C9.71407 19 10.1592 18.8156 10.4874 18.4874C10.8156 18.1592 10.9999 17.7141 10.9999 17.25C10.9999 16.7859 10.8156 16.3408 10.4874 16.0126C10.1592 15.6844 9.71407 15.5 9.24994 15.5C9.15468 15.5007 9.05964 15.5092 8.96576 15.5254C8.07172 14.1936 7.49994 12.3057 7.49994 10.2432C7.49994 6.31666 9.56094 3 11.9999 3C14.0594 3 15.8445 5.36875 16.3515 8.46875C17.0625 8.67275 17.7708 8.94873 18.4648 9.28223C18.1258 4.63523 15.3559 1 11.9999 1ZM11.2499 8.5C10.7858 8.5 10.3407 8.68437 10.0125 9.01256C9.68431 9.34075 9.49994 9.78587 9.49994 10.25C9.49994 10.7141 9.68431 11.1592 10.0125 11.4874C10.3407 11.8156 10.7858 12 11.2499 12C11.5771 11.9998 11.8976 11.908 12.1752 11.7348C12.4527 11.5617 12.6762 11.3142 12.8203 11.0205C14.4451 10.9187 16.323 11.4201 18.0566 12.459C21.4866 14.5155 23.3518 18.1115 22.1288 20.3115C21.7268 21.0345 21.0026 21.5545 20.0341 21.8135C18.6396 22.1865 16.9296 21.9968 15.2451 21.3193C14.7106 21.8163 14.1229 22.2829 13.4814 22.7119C15.1454 23.5524 16.9052 23.998 18.5312 23.998C19.2362 23.998 19.9167 23.9151 20.5517 23.7451C22.0552 23.3426 23.2054 22.4912 23.8769 21.2832C25.6689 18.0587 23.5639 13.4291 19.0849 10.7441C16.9537 9.46594 14.5927 8.87691 12.5175 9.04688C12.3544 8.87453 12.1578 8.73718 11.9399 8.64316C11.722 8.54915 11.4873 8.50044 11.2499 8.5ZM4.58002 11.6621C1.03952 14.3976 -0.479037 18.3997 1.12396 21.2832C1.79546 22.4912 2.94566 23.3426 4.44916 23.7451C5.08466 23.9151 5.76367 23.998 6.46967 23.998C8.36967 23.998 10.455 23.3948 12.3535 22.2568C14.4774 20.9835 16.0478 19.2719 16.9384 17.4814C17.814 17.3861 18.4999 16.6505 18.4999 15.75C18.4999 14.785 17.7149 14 16.7499 14C15.7849 14 14.9999 14.785 14.9999 15.75C14.9999 16.0201 15.066 16.2733 15.1757 16.502C14.4538 17.9893 13.1067 19.4727 11.3251 20.541C9.17714 21.829 6.79976 22.305 4.96576 21.8135C3.99776 21.5545 3.27401 21.0345 2.87201 20.3115C1.90501 18.5715 2.87309 15.9617 5.01459 13.9277C4.80909 13.2077 4.66202 12.4496 4.58002 11.6621Z" fill="currentColor"/>
</svg>
