<svg width="25" height="25" viewBox="0 0 25 25" fill="none" xmlns="http://www.w3.org/2000/svg">
<path d="M23.026 7.86779C22.7927 8.33446 22.4812 8.62091 22.0739 8.74071C21.4343 8.93133 20.675 8.68654 20.3187 8.47716C19.8489 8.20112 19.3041 7.78237 18.7281 7.33966C16.8896 5.92508 14.6021 4.16675 11.4583 4.16675C8.94372 4.16675 7.65205 5.45737 5.51351 7.59696L6.97913 9.07716C7.54788 8.63446 11.1781 9.06154 12.7625 10.3209C15.1156 12.1907 16.8146 13.5417 18.75 13.5417C21.5198 13.5417 23.8323 11.7282 24.9375 8.68966L23.026 7.86779ZM16.8666 16.0324C16.2281 16.2199 15.4677 15.9782 15.1114 15.7688C14.6416 15.4928 14.0968 15.074 13.5208 14.6313C11.6812 13.2167 9.39372 11.4584 6.24997 11.4584C3.73538 11.4584 2.44372 12.749 0.305176 14.8886L1.7708 16.3688C2.33851 15.924 5.9708 16.3542 7.55413 17.6126C9.90726 19.4824 11.6062 20.8334 13.5416 20.8334C16.3114 20.8334 18.6239 19.0199 19.7291 15.9813L17.8187 15.1595C17.5843 15.6261 17.2739 15.9115 16.8666 16.0324Z" fill="currentColor"/>
</svg>
