<svg width="25" height="25" viewBox="0 0 25 25" fill="none" xmlns="http://www.w3.org/2000/svg">
<g clip-path="url(#clip0_4380_16)">
<path d="M11.5419 0.0236529C11.8707 -0.0197039 12.2179 0.00981009 12.5492 0.00981009C13.7765 0.00981009 14.9815 0.201227 16.1559 0.564014C17.6545 1.02703 19.0504 1.7673 20.2824 2.74119C21.7925 3.93488 23.0437 5.50056 23.8465 7.25772C25.3487 10.5452 25.3376 14.5294 23.7987 17.8031C22.8037 19.9198 21.2073 21.6914 19.2751 22.9833C17.6986 24.0374 15.8548 24.6826 13.9789 24.9111C11.591 25.2019 9.0096 24.7769 6.86302 23.6713C2.83327 21.5958 0.0936696 17.4184 0.0394722 12.8406C0.0290421 11.958 0.0427214 11.0701 0.216654 10.1961C0.499955 8.77263 0.993906 7.39667 1.73574 6.14768C2.53821 4.79653 3.57475 3.60422 4.81599 2.64292C6.27159 1.51561 7.96334 0.704761 9.75485 0.29225C10.1875 0.192642 10.6219 0.13744 11.0585 0.0840519L11.1964 0.0672032C11.3114 0.0531301 11.4266 0.038872 11.5419 0.0236529ZM7.37316 20.8358C6.81823 20.8956 6.23292 20.9971 5.75664 21.3102C5.86386 21.336 5.98675 21.3103 6.0986 21.3102C6.36725 21.3097 6.63848 21.2995 6.90686 21.3114C7.5787 21.341 8.27872 21.4489 8.9275 21.6277C9.75817 21.8565 10.4898 22.3068 11.2901 22.6104C12.1343 22.9308 12.9747 23.0303 13.8703 23.0303C14.3216 23.0303 14.7695 23.029 15.207 22.9052C14.9787 22.783 14.6518 22.806 14.3988 22.7551C13.8499 22.6446 13.3102 22.5098 12.7823 22.3206C12.3937 22.1813 12.0194 22.0095 11.6469 21.8339L11.4075 21.7208C11.0617 21.5576 10.715 21.3966 10.3575 21.2609C9.41736 20.9041 8.37558 20.7279 7.37316 20.8358ZM8.2125 18.4641C7.11281 18.4641 6.00058 18.6587 5.01056 19.1599C4.7707 19.2813 4.5427 19.426 4.32665 19.5864C4.26081 19.6353 4.14408 19.6981 4.11974 19.783C4.09505 19.8692 4.18331 19.9414 4.23339 19.9966C4.48084 19.8641 4.71595 19.7239 4.97947 19.6233C6.68381 18.9729 8.74993 19.1092 10.4507 19.7056C11.299 20.003 12.0804 20.4477 12.9066 20.7965C13.8306 21.1865 14.7743 21.4395 15.7666 21.5692C16.9371 21.7221 18.2716 21.5982 19.3416 21.0676C19.7175 20.8811 20.2395 20.597 20.3985 20.1842C20.2022 20.2015 20.0255 20.286 19.839 20.3442C19.5423 20.4369 19.2422 20.5154 18.9374 20.5768C17.9047 20.7846 16.8065 20.8275 15.7666 20.6389C14.7865 20.4611 13.8758 20.1041 12.9695 19.7285L12.8538 19.6804C12.7767 19.6484 12.6996 19.6162 12.6224 19.584L12.5067 19.5359C12.0437 19.3432 11.5788 19.1529 11.1036 18.9862C10.1803 18.6625 9.1908 18.4641 8.2125 18.4641ZM10.1399 1.49472C8.82165 1.78724 7.64075 2.35686 6.50273 3.07495C5.84204 3.49182 5.21004 3.91889 4.63752 4.45542C3.78611 5.25335 3.13541 6.22318 2.56789 7.23616C1.98314 8.27985 1.60824 9.49622 1.42703 10.6765C1.24928 11.8344 1.21999 13.0518 1.42361 14.2106C1.67815 15.6594 2.16264 17.019 2.92775 18.2764C3.18486 18.1558 3.36741 17.8808 3.58057 17.6955C4.011 17.3214 4.46291 16.9747 4.94839 16.6755C5.1281 16.5647 5.31272 16.4787 5.50795 16.3999C5.58159 16.3701 5.70199 16.343 5.73666 16.2617C5.79174 16.1327 5.68987 15.9081 5.67237 15.7744C5.62241 15.392 5.59226 15.0031 5.60168 14.6172C5.62903 13.4934 5.83809 12.3539 6.23613 11.302C6.53608 10.5094 6.9943 9.78978 7.53714 9.14397C7.72133 8.92482 7.91714 8.72084 8.11924 8.51849C8.23868 8.39889 8.3869 8.29656 8.4612 8.14315C8.07143 8.1434 7.6816 8.2563 7.31098 8.37093C6.51255 8.61788 5.73476 8.9843 5.07273 9.50129C4.77076 9.73714 4.54961 10.0463 4.26401 10.2945C4.17641 10.3706 4.01948 10.4727 3.89843 10.4152C3.71555 10.3285 3.74377 9.96692 3.72282 9.80075C3.64224 9.16161 3.88326 8.35316 4.18956 7.79912C4.68126 6.90974 5.59042 6.1503 6.65816 6.17683C7.11927 6.18827 7.52296 6.34922 7.96381 6.45427C7.85202 6.29473 7.70215 6.17845 7.55968 6.04769C7.2106 5.72727 6.8288 5.43463 6.40947 5.21326C6.24076 5.12422 6.05912 5.07011 5.88099 5.00468C5.79143 4.97181 5.67865 4.92655 5.64495 4.82657C5.58256 4.64138 5.9145 4.46987 6.03643 4.39177C6.50776 4.0899 7.0857 3.84157 7.65294 3.82759C8.53941 3.80573 9.40555 4.29985 9.77069 5.1407C9.89907 5.43627 9.93703 5.74884 9.96222 6.06429L9.96681 6.12347L9.97338 6.21232C9.9741 6.22219 9.97482 6.23207 9.97554 6.24195L9.97992 6.3012L9.98445 6.36044C10.2629 6.13245 10.4587 5.79692 10.7305 5.55272C11.3663 4.98157 12.2364 4.72802 13.062 4.98513C13.8082 5.21745 14.4566 5.73468 14.8383 6.42299C14.9381 6.60308 15.2167 7.04322 15.0154 7.22259C14.8579 7.36301 14.6582 7.25358 14.492 7.19534C14.3662 7.15126 14.2363 7.12329 14.1058 7.0974L14.0347 7.0834C14.011 7.07874 13.9872 7.07407 13.9636 7.0693C13.5118 6.97832 12.9863 6.98777 12.5336 7.06774C12.2409 7.11944 11.9548 7.22409 11.6631 7.26743V7.32999C12.4606 7.33662 13.2321 7.79365 13.6256 8.48718C13.7886 8.77451 13.87 9.10337 13.9324 9.42545C14.0097 9.82352 13.9554 10.2572 13.8471 10.6452C13.8108 10.7753 13.7449 10.9958 13.59 11.0258C13.4806 11.0469 13.3876 10.9375 13.3252 10.8637C13.1614 10.6702 13.0056 10.4862 12.8133 10.3192C12.3271 9.89655 11.8129 9.5067 11.2901 9.1308C11.0125 8.9312 10.7084 8.67171 10.3886 8.54973C10.4785 8.76735 10.5666 8.96967 10.5972 9.20652C10.6872 9.90321 10.3968 10.559 9.96101 11.083C9.82802 11.243 9.68577 11.4041 9.51815 11.5284C9.44864 11.5799 9.36141 11.6472 9.26945 11.6326C8.98115 11.5869 8.94683 11.1503 8.90263 10.9267C8.75291 10.1691 8.81304 9.41678 9.02076 8.67483C8.83595 8.76897 8.70237 8.97498 8.58632 9.14397C8.331 9.5158 8.10948 9.90909 7.95063 10.3324C7.31798 12.0188 7.32407 13.994 8.14364 15.6174C8.23516 15.7987 8.37406 15.7744 8.55446 15.7744C8.58164 15.7744 8.60885 15.7742 8.63609 15.774L8.71784 15.7731C8.88144 15.7714 9.0454 15.7707 9.20728 15.7924C9.29127 15.8037 9.40791 15.7936 9.47441 15.8558C9.55402 15.9303 9.51159 16.058 9.49325 16.1497C9.44201 16.406 9.42489 16.6389 9.42489 16.9003C9.76516 16.8473 9.85948 16.2993 9.9801 16.0246C10.1168 15.7134 10.2559 15.4018 10.3823 15.0863C10.4445 14.9313 10.5277 14.7579 10.5058 14.5859C10.4813 14.3927 10.3423 14.1878 10.2455 14.023C10.0621 13.711 9.85373 13.3901 9.71875 13.0534C9.61085 12.7843 9.71132 12.448 10.0156 12.3518C10.1834 12.2988 10.3624 12.4028 10.4716 12.5247C10.7006 12.7801 10.8484 13.1602 11.0147 13.46L12.3116 15.8057C12.4217 16.0043 12.5321 16.2027 12.6448 16.3999C12.6888 16.4768 12.7335 16.5956 12.8236 16.6284C12.9038 16.6576 13.0134 16.6161 13.0931 16.6001C13.3002 16.5584 13.507 16.5134 13.7149 16.4757C13.9639 16.4305 14.3436 16.439 14.5231 16.2435C14.2606 16.16 13.9571 16.1649 13.6838 16.1837C13.5196 16.1951 13.3377 16.2541 13.1869 16.1578C12.9624 16.0145 12.8132 15.6834 12.6758 15.4616C12.3372 14.9147 12.0181 14.3595 11.6939 13.804L11.642 13.7156L11.5377 13.5389C11.4856 13.4504 11.434 13.3618 11.3839 13.2723C11.3451 13.2032 11.2877 13.112 11.3432 13.0357C11.4015 12.9556 11.5285 12.9509 11.6432 12.9507L11.666 12.9507C11.711 12.9508 11.7533 12.9508 11.7875 12.9463C12.2503 12.8851 12.7196 12.8345 13.1864 12.8345C13.15 12.7075 13.0461 12.564 13.0794 12.428C13.1537 12.1238 13.5894 12.0287 13.792 12.2469C13.9281 12.3935 14.0071 12.5951 14.0956 12.7719C14.2124 13.0053 14.3454 13.231 14.4705 13.46C14.6894 13.861 14.9285 14.2509 15.1536 14.6485C15.1722 14.6812 15.1913 14.7139 15.2106 14.7465L15.2397 14.7953C15.3369 14.9583 15.4345 15.1224 15.4868 15.3052C14.7049 15.2693 14.118 14.3576 13.777 13.7415C13.7498 13.8401 13.794 13.9282 13.8294 14.023C13.9028 14.2198 13.9906 14.4073 14.1011 14.5859C14.2589 14.8409 14.4398 15.1036 14.6786 15.2887C15.1022 15.6173 15.6609 15.6191 16.1707 15.5839C16.4976 15.5614 16.9061 15.4119 17.2277 15.5133C17.5487 15.6146 17.6779 15.9703 17.4873 16.2435C17.3445 16.4481 17.1538 16.5254 16.9168 16.5563C17.0844 16.9175 17.304 17.2527 17.4632 17.6196C17.5295 17.7725 17.5986 18.0068 17.7575 18.0875C17.8633 18.1411 18.0148 18.0911 18.1292 18.0888C18.0144 17.7837 17.7995 17.5248 17.694 17.2131C18.0158 17.2278 18.327 17.3965 18.6266 17.5042C19.216 17.7159 19.7979 17.9474 20.379 18.181L20.6472 18.2889C20.8862 18.3851 21.1267 18.4803 21.3622 18.5849C21.4484 18.6231 21.5677 18.7125 21.6629 18.6575C21.7407 18.6125 21.7909 18.5054 21.8389 18.4328C21.9729 18.2297 22.0944 18.0188 22.2146 17.8073C22.6963 16.9601 23.0496 16.0318 23.2856 15.0863C24.0641 11.968 23.3963 8.52737 21.5256 5.92259C20.8068 4.9218 19.9029 4.05659 18.9064 3.34007C16.4124 1.54701 13.1405 0.828928 10.1399 1.49472ZM15.2381 17.0451C14.577 17.2182 13.8957 17.3752 13.2175 17.4633C13.3067 17.7683 13.5246 18.065 13.6841 18.339C13.7458 18.4449 13.8118 18.5868 13.9337 18.6327C14.0714 18.6847 14.2378 18.6004 14.3677 18.5579C14.3075 18.3926 14.2063 18.2438 14.1235 18.0888C14.0893 18.0248 14.0365 17.9492 14.0647 17.8732C14.1178 17.7298 14.3387 17.7383 14.4609 17.7133C14.7832 17.6477 15.1021 17.5657 15.4246 17.5008C15.5435 17.4769 15.7089 17.4121 15.8283 17.4521C15.9177 17.4821 15.9716 17.5561 16.0226 17.6332L16.0454 17.668C16.0759 17.7143 16.1072 17.7596 16.1462 17.795C16.2765 17.9132 16.4715 17.9314 16.637 17.9637C16.536 17.7354 16.3682 17.5356 16.2605 17.3069C16.198 17.1739 16.1465 16.9782 16.0095 16.9013C15.8208 16.7954 15.431 16.9945 15.2381 17.0451ZM11.0725 15.5242C11.0414 15.9207 10.9203 16.2433 10.7305 16.5875C10.948 16.6152 11.1698 16.625 11.3834 16.6782C11.5434 16.7181 11.6909 16.7941 11.8497 16.8377C11.7648 16.6045 11.6073 16.3964 11.4853 16.181C11.3622 15.9635 11.2519 15.6993 11.0725 15.5242Z" fill="currentColor"/>
</g>
<defs>
<clipPath id="clip0_4380_16">
<rect width="25" height="25" fill="white"/>
</clipPath>
</defs>
</svg>
